<?xml version="1.0" encoding="utf-8"?>
<!-- Generator: Adobe Illustrator 28.1.0, SVG Export Plug-In . SVG Version: 6.00 Build 0)  -->
<svg version="1.1" id="Layer_1" xmlns="http://www.w3.org/2000/svg" xmlns:xlink="http://www.w3.org/1999/xlink" x="0px" y="0px"
	 viewBox="0 0 408.5 102.6" style="enable-background:new 0 0 408.5 102.6;" xml:space="preserve">
<style type="text/css">
	.st0{fill:#878787;}
	.st1{fill:#ADDBF7;}
	.st2{fill:#D3D927;}
	.st3{fill:#97C44B;}
	.st4{fill:#0093C4;}
	.st5{fill:#C8D530;}
	.st6{fill:#EDEDED;}
	.st7{fill:#33BCEE;}
	.st8{fill:#00B0D8;}
	.st9{fill:#95D3E2;}
</style>
<g>
	<path class="st0" d="M395.5,65.1c-1.8,4.9-7,9.8-13.5,9.8c-7.3,0-12.5-6.6-12.5-17.3c0-11.6,5.9-18.2,13.7-18.2
		c4.9,0,9.8,2.6,12.3,7V65.1z M408.5,79.7v-3.3c0-1.1-0.5-1.3-1.4-1.3h-0.7c-0.8,0-1.3-0.2-1.7-0.9c-0.4-0.6-0.5-2.1-0.5-4.4V36.4
		c0-1.3-0.6-1.9-1.8-1.9l-4.6-0.7c-1.1,0-1.9,0.5-1.9,1.7l-0.1,3.2c-3-3.9-8.5-5.9-13.6-5.9c-11.6,0-21.6,9.2-21.6,25.4
		c0,12.3,6.2,23.7,20.2,23.7c6.2,0,12.9-3.9,15.2-8.2h0.2c0,3.9,2.1,7.2,6.6,7.2h4.3C408,80.9,408.5,80.6,408.5,79.7 M361.4,34.8
		v-0.5c0-0.6-0.2-1.1-0.8-1.2c-1-0.2-2.2-0.3-2.9-0.3c-5.4,0-9.2,2.9-11.7,6.1l-0.1-3.3c0-1.3-0.7-1.8-2-1.8h-4.4
		c-1.2,0-1.9,0.5-1.9,1.9v43c0,1.4,0.6,2,1.9,2h4.8c1.3,0,1.9-0.8,1.9-2v-33c2.6-3.6,6.6-5.8,10.1-5.8c1,0,2,0.1,2.9,0.3h0.3
		c0.6,0,1-0.3,1.1-1L361.4,34.8z M320.9,57.5c0,9.1-3.8,18-14.4,18c-10.7,0-13.9-9.4-13.9-18.4c0-8.6,3.3-17.8,14.3-17.8
		C317.5,39.2,320.9,48.4,320.9,57.5 M329.8,57.4c0-14.1-7.1-24.5-22.8-24.5c-15.1,0-23.3,10.7-23.3,24.5c0,13.9,7,24.6,22.7,24.6
		C321.5,81.9,329.8,71.1,329.8,57.4 M269.4,68.1c-2.5,3.5-8.2,6.1-13.1,6.1c-9.9,0-13.3-9-13.3-17.2c0-8.9,3.9-17.5,14.2-17.5
		c5,0,9.9,2.9,12.2,6.7L269.4,68.1L269.4,68.1z M278.1,78.4v-9.9V35.8c0-1.4-0.5-1.9-1.8-1.9h-4.5c-1.2,0-2,0.4-2,1.7l-0.1,3
		c-2.9-3.7-8.6-5.7-13.4-5.7c-14.5,0-22.2,11.6-22.2,24.6c0,12.8,6.5,23.5,20.9,23.5c5.1,0,11.2-2.2,14.5-5.7v4.5
		c0,10.1-3.1,15.9-14.4,15.9c-3.5,0-8-1.4-11.7-2.9c-0.4-0.2-0.7-0.3-1-0.3c-0.6,0-1.1,0.5-1.4,1.4l-1.1,2.9
		c-0.1,0.3-0.2,0.6-0.2,0.9c0,0.7,0.4,1.2,1.2,1.6c4.4,1.9,9.7,3.3,14.4,3.3C271.6,102.4,278.1,93.5,278.1,78.4 M220.2,57.5
		c0,9.1-3.8,18-14.4,18c-10.7,0-13.9-9.4-13.9-18.4c0-8.6,3.3-17.8,14.3-17.8C216.7,39.2,220.2,48.4,220.2,57.5 M229.1,57.4
		c0-14.1-7.1-24.5-22.8-24.5c-15.1,0-23.3,10.7-23.3,24.5c0,13.9,7,24.6,22.7,24.6C220.8,81.9,229.1,71.1,229.1,57.4 M180.4,76.1
		c0-0.3-0.1-0.7-0.3-1.1l-1.3-3c-0.3-0.8-0.8-1.2-1.3-1.2c-0.3,0-0.6,0.1-0.9,0.3c-4.8,2.2-10.8,3.6-15.8,3.6
		c-15.5,0-22.4-11.7-22.4-26.3c0-7.2,1.8-12.9,6.3-18.1c3.9-4.7,9.6-7.4,16.1-7.4c5.4,0,10.3,1.3,15.1,3.9c0.3,0.2,0.6,0.3,0.9,0.3
		c0.5,0,0.9-0.3,1.2-1l1.6-3.6c0.2-0.5,0.3-0.9,0.3-1.2c0-0.6-0.4-0.9-1.2-1.4c-5.6-3-11.9-4.4-18.5-4.4
		c-20.3,0-31.8,14.7-31.8,33.3c0,19,9.9,33,31.1,33c7,0,13.4-1.4,19.6-4.2C179.9,77.3,180.4,76.7,180.4,76.1"/>
</g>
<polygon class="st1" points="69,97.4 66.5,94.9 66.5,69 69,66.5 94.9,66.5 97.4,69 97.4,94.9 94.9,97.4 "/>
<polygon class="st2" points="69,0 66.5,2.5 66.5,28.4 69,30.9 94.9,30.9 97.4,28.4 97.4,2.5 94.9,0 "/>
<polygon class="st3" points="2.5,0 0,2.5 0,28.4 2.5,30.9 28.4,30.9 30.9,28.4 30.9,2.5 28.4,0 "/>
<polygon class="st4" points="2.5,66.5 0,69 0,94.9 2.5,97.4 28.4,97.4 30.9,94.9 30.9,69 28.4,66.5 "/>
<polygon class="st5" points="35.8,0 33.3,2.5 33.3,28.4 35.8,30.9 61.6,30.9 64.1,28.4 64.1,2.5 61.6,0 "/>
<polygon class="st6" points="35.8,33.3 33.3,35.8 33.3,61.6 35.8,64.1 61.6,64.1 64.1,61.6 64.1,35.8 61.6,33.3 "/>
<polygon class="st7" points="35.8,66.5 33.3,69 33.3,94.9 35.8,97.4 61.6,97.4 64.1,94.9 64.1,69 61.6,66.5 "/>
<polygon class="st8" points="2.5,33.3 0,35.8 0,61.6 2.5,64.1 28.4,64.1 30.9,61.6 30.9,35.8 28.4,33.3 "/>
<polygon class="st9" points="69,33.3 66.5,35.8 66.5,61.6 69,64.1 94.9,64.1 97.4,61.6 97.4,35.8 94.9,33.3 "/>
</svg>
