<svg width="409" height="103" viewBox="0 0 409 103" fill="none" xmlns="http://www.w3.org/2000/svg">
<g clip-path="url(#clip0_3266_44)">
<path d="M395.5 65.1C393.7 70 388.5 74.9 382 74.9C374.7 74.9 369.5 68.3 369.5 57.6C369.5 46 375.4 39.4 383.2 39.4C388.1 39.4 393 42 395.5 46.4V65.1ZM408.5 79.7V76.4C408.5 75.3 408 75.1 407.1 75.1H406.4C405.6 75.1 405.1 74.9 404.7 74.2C404.3 73.6 404.2 72.1 404.2 69.8V36.4C404.2 35.1 403.6 34.5 402.4 34.5L397.8 33.8C396.7 33.8 395.9 34.3 395.9 35.5L395.8 38.7C392.8 34.8 387.3 32.8 382.2 32.8C370.6 32.8 360.6 42 360.6 58.2C360.6 70.5 366.8 81.9 380.8 81.9C387 81.9 393.7 78 396 73.7H396.2C396.2 77.6 398.3 80.9 402.8 80.9H407.1C408 80.9 408.5 80.6 408.5 79.7ZM361.4 34.8V34.3C361.4 33.7 361.2 33.2 360.6 33.1C359.6 32.9 358.4 32.8 357.7 32.8C352.3 32.8 348.5 35.7 346 38.9L345.9 35.6C345.9 34.3 345.2 33.8 343.9 33.8H339.5C338.3 33.8 337.6 34.3 337.6 35.7V78.7C337.6 80.1 338.2 80.7 339.5 80.7H344.3C345.6 80.7 346.2 79.9 346.2 78.7V45.7C348.8 42.1 352.8 39.9 356.3 39.9C357.3 39.9 358.3 40 359.2 40.2H359.5C360.1 40.2 360.5 39.9 360.6 39.2L361.4 34.8ZM320.9 57.5C320.9 66.6 317.1 75.5 306.5 75.5C295.8 75.5 292.6 66.1 292.6 57.1C292.6 48.5 295.9 39.3 306.9 39.3C317.5 39.2 320.9 48.4 320.9 57.5ZM329.8 57.4C329.8 43.3 322.7 32.9 307 32.9C291.9 32.9 283.7 43.6 283.7 57.4C283.7 71.3 290.7 82 306.4 82C321.5 81.9 329.8 71.1 329.8 57.4ZM269.4 68.1C266.9 71.6 261.2 74.2 256.3 74.2C246.4 74.2 243 65.2 243 57C243 48.1 246.9 39.5 257.2 39.5C262.2 39.5 267.1 42.4 269.4 46.2V68.1ZM278.1 78.4V68.5V35.8C278.1 34.4 277.6 33.9 276.3 33.9H271.8C270.6 33.9 269.8 34.3 269.8 35.6L269.7 38.6C266.8 34.9 261.1 32.9 256.3 32.9C241.8 32.9 234.1 44.5 234.1 57.5C234.1 70.3 240.6 81 255 81C260.1 81 266.2 78.8 269.5 75.3V79.8C269.5 89.9 266.4 95.7 255.1 95.7C251.6 95.7 247.1 94.3 243.4 92.8C243 92.6 242.7 92.5 242.4 92.5C241.8 92.5 241.3 93 241 93.9L239.9 96.8C239.8 97.1 239.7 97.4 239.7 97.7C239.7 98.4 240.1 98.9 240.9 99.3C245.3 101.2 250.6 102.6 255.3 102.6C271.6 102.4 278.1 93.5 278.1 78.4ZM220.2 57.5C220.2 66.6 216.4 75.5 205.8 75.5C195.1 75.5 191.9 66.1 191.9 57.1C191.9 48.5 195.2 39.3 206.2 39.3C216.7 39.2 220.2 48.4 220.2 57.5ZM229.1 57.4C229.1 43.3 222 32.9 206.3 32.9C191.2 32.9 183 43.6 183 57.4C183 71.3 190 82 205.7 82C220.8 81.9 229.1 71.1 229.1 57.4ZM180.4 76.1C180.4 75.8 180.3 75.4 180.1 75L178.8 72C178.5 71.2 178 70.8 177.5 70.8C177.2 70.8 176.9 70.9 176.6 71.1C171.8 73.3 165.8 74.7 160.8 74.7C145.3 74.7 138.4 63 138.4 48.4C138.4 41.2 140.2 35.5 144.7 30.3C148.6 25.6 154.3 22.9 160.8 22.9C166.2 22.9 171.1 24.2 175.9 26.8C176.2 27 176.5 27.1 176.8 27.1C177.3 27.1 177.7 26.8 178 26.1L179.6 22.5C179.8 22 179.9 21.6 179.9 21.3C179.9 20.7 179.5 20.4 178.7 19.9C173.1 16.9 166.8 15.5 160.2 15.5C139.9 15.5 128.4 30.2 128.4 48.8C128.4 67.8 138.3 81.8 159.5 81.8C166.5 81.8 172.9 80.4 179.1 77.6C179.9 77.3 180.4 76.7 180.4 76.1Z" fill="white"/>
<path d="M69 97.4L66.5 94.9V69L69 66.5H94.9L97.4 69V94.9L94.9 97.4H69Z" fill="#ADDBF7"/>
<path d="M69 0L66.5 2.5V28.4L69 30.9H94.9L97.4 28.4V2.5L94.9 0H69Z" fill="#D3D927"/>
<path d="M2.5 0L0 2.5V28.4L2.5 30.9H28.4L30.9 28.4V2.5L28.4 0H2.5Z" fill="#97C44B"/>
<path d="M2.5 66.5L0 69V94.9L2.5 97.4H28.4L30.9 94.9V69L28.4 66.5H2.5Z" fill="#0093C4"/>
<path d="M35.7998 0L33.2998 2.5V28.4L35.7998 30.9H61.5998L64.0998 28.4V2.5L61.5998 0H35.7998Z" fill="#C8D530"/>
<path d="M35.7998 33.3L33.2998 35.8V61.6L35.7998 64.1H61.5998L64.0998 61.6V35.8L61.5998 33.3H35.7998Z" fill="#EDEDED"/>
<path d="M35.7998 66.5L33.2998 69V94.9L35.7998 97.4H61.5998L64.0998 94.9V69L61.5998 66.5H35.7998Z" fill="#33BCEE"/>
<path d="M2.5 33.3L0 35.8V61.6L2.5 64.1H28.4L30.9 61.6V35.8L28.4 33.3H2.5Z" fill="#00B0D8"/>
<path d="M69 33.3L66.5 35.8V61.6L69 64.1H94.9L97.4 61.6V35.8L94.9 33.3H69Z" fill="#95D3E2"/>
</g>
<defs>
<clipPath id="clip0_3266_44">
<rect width="408.5" height="102.6" fill="white"/>
</clipPath>
</defs>
</svg>
