<svg width="97" height="97" viewBox="0 0 97 97" fill="none" xmlns="http://www.w3.org/2000/svg">
<g clip-path="url(#clip0_3266_32)">
<path d="M69 97.4L66.5 94.9V69L69 66.5H94.9L97.4 69V94.9L94.9 97.4H69Z" fill="#ADDBF7"/>
<path d="M69 0L66.5 2.5V28.4L69 30.9H94.9L97.4 28.4V2.5L94.9 0H69Z" fill="#D3D927"/>
<path d="M2.5 0L0 2.5V28.4L2.5 30.9H28.4L30.9 28.4V2.5L28.4 0H2.5Z" fill="#97C44B"/>
<path d="M2.5 66.5L0 69V94.9L2.5 97.4H28.4L30.9 94.9V69L28.4 66.5H2.5Z" fill="#0093C4"/>
<path d="M35.7998 0L33.2998 2.5V28.4L35.7998 30.9H61.5998L64.0998 28.4V2.5L61.5998 0H35.7998Z" fill="#C8D530"/>
<path d="M35.7998 33.3L33.2998 35.8V61.6L35.7998 64.1H61.5998L64.0998 61.6V35.8L61.5998 33.3H35.7998Z" fill="#EDEDED"/>
<path d="M35.7998 66.5L33.2998 69V94.9L35.7998 97.4H61.5998L64.0998 94.9V69L61.5998 66.5H35.7998Z" fill="#33BCEE"/>
<path d="M2.5 33.3L0 35.8V61.6L2.5 64.1H28.4L30.9 61.6V35.8L28.4 33.3H2.5Z" fill="#00B0D8"/>
<path d="M69 33.3L66.5 35.8V61.6L69 64.1H94.9L97.4 61.6V35.8L94.9 33.3H69Z" fill="#95D3E2"/>
</g>
<defs>
<clipPath id="clip0_3266_32">
<rect width="97" height="97" fill="white"/>
</clipPath>
</defs>
</svg>
